<svg xmlns="http://www.w3.org/2000/svg" xmlns:xlink="http://www.w3.org/1999/xlink" id="Warstwa_1" x="0" y="0" version="1.1" viewBox="0 0 500 500" style="enable-background:new 0 0 500 500" xml:space="preserve"><style type="text/css"/><g><defs><path id="SVGID_1_" d="M116,250c0-74.01,59.99-134,133.99-134c74,0,133.99,59.99,133.99,134c0,74-59.99,133.99-133.99,133.99 C176,383.99,116,324,116,250 M250,0C111.93,0,0,111.93,0,250c0,138.07,111.93,250,250,250c138.07,0,250-111.93,250-250 C500,111.93,388.07,0,250,0z"/></defs><clipPath id="SVGID_00000165943814561545672760000017654432674327180958_"><use xlink:href="#SVGID_1_" style="overflow:visible"/></clipPath><linearGradient id="SVGID_00000139975752467644460160000006630510946327023271_" x1="0" x2="1" y1="500" y2="500" gradientTransform="matrix(221.0961 790.269 790.269 -221.0961 -394998.0625 110392.1406)" gradientUnits="userSpaceOnUse"><stop offset="0" style="stop-color:#ff79f4"/><stop offset=".14" style="stop-color:#ff79f4"/><stop offset=".301" style="stop-color:#c09af4"/><stop offset=".49" style="stop-color:#7cbef5"/><stop offset=".662" style="stop-color:#47daf5"/><stop offset=".809" style="stop-color:#20eef6"/><stop offset=".927" style="stop-color:#09faf6"/><stop offset="1" style="stop-color:#00fff6"/></linearGradient><polygon style="clip-path:url(#SVGID_00000165943814561545672760000017654432674327180958_);fill:url(#SVGID_00000139975752467644460160000006630510946327023271_)" points="463.7 -129.73 629.73 463.7 36.3 629.73 -129.73 36.3"/></g><g><defs><path id="SVGID_00000072263431002488892910000003288409675655489676_" d="M383.99,250c0,60.91,21.8,116.71,58,160.08 c35.5-42.53,57.09-97.03,57.91-156.57c-0.03-1.18-0.18-2.32-0.18-3.51s0.15-2.33,0.18-3.51C499.09,186.96,477.5,132.45,442,89.92 C405.8,133.29,383.99,189.09,383.99,250"/></defs><clipPath id="SVGID_00000145767019142822666750000006959872629386148772_"><use xlink:href="#SVGID_00000072263431002488892910000003288409675655489676_" style="overflow:visible"/></clipPath><linearGradient id="SVGID_00000039115445347622588600000017649454619045594013_" x1="0" x2="1" y1="500" y2="500" gradientTransform="matrix(0 321.3491 321.3491 0 -160232.6094 88.998)" gradientUnits="userSpaceOnUse"><stop offset="0" style="stop-color:#8773eb"/><stop offset="1" style="stop-color:#00c4f0"/></linearGradient><rect x="383.99" y="89.92" style="clip-path:url(#SVGID_00000145767019142822666750000006959872629386148772_);fill:url(#SVGID_00000039115445347622588600000017649454619045594013_)" width="115.92" height="320.16"/></g><g><defs><path id="SVGID_00000072249238353737566840000014916387287968724612_" d="M0.09,246.49c0.03,1.18,0.18,2.32,0.18,3.51 s-0.15,2.33-0.18,3.51C0.91,313.04,22.5,367.55,58,410.08c36.2-43.37,58-99.17,58-160.08c0-60.91-21.81-116.71-58-160.08 C22.5,132.45,0.91,186.96,0.09,246.49"/></defs><clipPath id="SVGID_00000041976250790231372290000000938134601346192282_"><use xlink:href="#SVGID_00000072249238353737566840000014916387287968724612_" style="overflow:visible"/></clipPath><linearGradient id="SVGID_00000124859632433241508030000004273433509171750558_" x1="0" x2="1" y1="500" y2="500" gradientTransform="matrix(0 305.9077 305.9077 0 -152895.8125 90.7164)" gradientUnits="userSpaceOnUse"><stop offset="0" style="stop-color:#8773eb"/><stop offset="1" style="stop-color:#00c4f0"/></linearGradient><rect x=".09" y="89.92" style="clip-path:url(#SVGID_00000041976250790231372290000000938134601346192282_);fill:url(#SVGID_00000124859632433241508030000004273433509171750558_)" width="115.92" height="320.16"/></g><g><defs><path id="SVGID_00000010298261125680200140000015180550712923422100_" d="M250,0.27c-1.18,0-2.33-0.15-3.51-0.18 C186.96,0.91,132.45,22.5,89.92,58c43.37,36.2,99.17,58,160.08,58c60.91,0,116.71-21.8,160.08-58 C367.55,22.5,313.04,0.91,253.51,0.09C252.33,0.12,251.18,0.27,250,0.27"/></defs><clipPath id="SVGID_00000034079431838309442220000011516882131773119931_"><use xlink:href="#SVGID_00000010298261125680200140000015180550712923422100_" style="overflow:visible"/></clipPath><linearGradient id="SVGID_00000025426207081779214870000005292296095308732047_" x1="0" x2="1" y1="500" y2="500" gradientTransform="matrix(-246.1183 0 0 246.1183 403.6113 -123001.1016)" gradientUnits="userSpaceOnUse"><stop offset="0" style="stop-color:#008dee"/><stop offset="1" style="stop-color:#a26dea"/></linearGradient><rect x="89.92" y=".09" style="clip-path:url(#SVGID_00000034079431838309442220000011516882131773119931_);fill:url(#SVGID_00000025426207081779214870000005292296095308732047_)" width="320.16" height="115.92"/></g><g><defs><path id="SVGID_00000171704163577433709630000008760504983180119711_" d="M90.21,442.24C133.53,478.3,189.23,500,250,500 c60.77,0,116.47-21.7,159.79-57.76c-43.33-36.05-99.02-57.75-159.79-57.75C189.23,384.49,133.53,406.19,90.21,442.24"/></defs><clipPath id="SVGID_00000010988838855521072650000004246271617466147460_"><use xlink:href="#SVGID_00000171704163577433709630000008760504983180119711_" style="overflow:visible"/></clipPath><linearGradient id="SVGID_00000155860906847232746130000013853420271400163459_" x1="0" x2="1" y1="500" y2="500" gradientTransform="matrix(319.588 0 0 -319.588 90.206 160236.2188)" gradientUnits="userSpaceOnUse"><stop offset="0" style="stop-color:#009bee"/><stop offset="1" style="stop-color:#00caf0"/></linearGradient><rect x="90.21" y="384.49" style="clip-path:url(#SVGID_00000010988838855521072650000004246271617466147460_);fill:url(#SVGID_00000155860906847232746130000013853420271400163459_)" width="319.59" height="115.51"/></g><g><defs><path id="SVGID_00000152958955220778438780000015145318644774429881_" d="M187.51,250c0,34.51,27.98,62.49,62.49,62.49 c34.51,0,62.48-27.98,62.48-62.49c0-34.51-27.97-62.49-62.48-62.49C215.49,187.51,187.51,215.49,187.51,250"/></defs><clipPath id="SVGID_00000026864653449686880480000004799632982249914010_"><use xlink:href="#SVGID_00000152958955220778438780000015145318644774429881_" style="overflow:visible"/></clipPath><linearGradient id="SVGID_00000039100667455176450930000018189356322287302060_" x1="0" x2="1" y1="500" y2="500" gradientTransform="matrix(0 -177.1736 -177.1736 0 88836.7734 388.0637)" gradientUnits="userSpaceOnUse"><stop offset="0" style="stop-color:#ff79f4"/><stop offset="1" style="stop-color:#00fff6"/></linearGradient><rect x="187.51" y="187.51" style="clip-path:url(#SVGID_00000026864653449686880480000004799632982249914010_);fill:url(#SVGID_00000039100667455176450930000018189356322287302060_)" width="124.97" height="124.97"/></g></svg>