<svg xmlns="http://www.w3.org/2000/svg" xmlns:xlink="http://www.w3.org/1999/xlink" id="Ebene_1" x="0" y="0" enable-background="new 0 0 210.448 210.448" version="1.1" viewBox="0 0 210.448 210.448" xml:space="preserve"><g><g><rect width="18.567" height="170.918" x="76.245" y="39.46" fill="#0050FF" transform="matrix(0.7071 -0.7071 0.7071 0.7071 -63.2809 97.0656)"/></g><g><rect width="18.567" height="170.918" x="115.636" y=".069" fill="#0050FF" transform="matrix(0.7071 -0.7071 0.7071 0.7071 -23.8894 113.3821)"/></g><g><rect width="94.714" height="18.567" x="11.229" y="103.187" fill="#1A1A1E" transform="matrix(0.7071 -0.7071 0.7071 0.7071 -62.3691 74.3683)"/></g><g><rect width="94.744" height="18.567" x="104.479" y="88.705" fill="#1A1A1E" transform="matrix(0.7071 -0.7071 0.7071 0.7071 -24.8116 136.0751)"/></g><g><rect width="39.06" height="18.567" x="112.617" y="29.626" fill="#1A1A1E" transform="matrix(0.7071 -0.7071 0.7071 0.7071 11.1921 104.8384)"/></g><g><rect width="39.043" height="18.567" x="58.773" y="162.261" fill="#1A1A1E" transform="matrix(0.7071 -0.7071 0.7071 0.7071 -98.3684 105.6068)"/></g></g></svg>