<svg xmlns="http://www.w3.org/2000/svg" xmlns:xlink="http://www.w3.org/1999/xlink" x="0" y="0" version="1.1" viewBox="0 0 155.91 155.91" style="enable-background:new 0 0 155.91 155.91" xml:space="preserve"><style type="text/css">.st4{fill:url(#SVGID_1_)}</style><g id="Layer_1"><g><linearGradient id="SVGID_1_" x1="79.047" x2="79.047" y1="5.669" y2="137.73" gradientUnits="userSpaceOnUse"><stop offset="0" style="stop-color:#af5aad"/><stop offset="1" style="stop-color:#2d0965"/></linearGradient><path d="M122.17,131.47c17.29-13.34,27.42-33.74,27.42-55.8c0-23.51-11.46-45-30.44-58.06 c-3.97-2.73-8.29-4.92-12.78-6.65l-1.55-0.6c-3.98-1.53-8.43,0.64-9.67,4.73v0c-1.11,3.69,0.81,7.6,4.41,8.98l1.18,0.45 c3.25,1.24,6.38,2.79,9.28,4.71c15.47,10.28,24.84,27.53,24.84,46.44c0,25.33-17.5,47.39-41.27,53.87 c-3.6,0.98-7.16-1.7-7.16-5.44v-2.9V16.09c0-5.96-5-10.71-10.95-10.4l-3.53,0.18c-4.42,0.23-8.81,0.93-13.06,2.19 C29.78,16.75,8.5,43.77,8.5,75.67c0,22.06,10.14,42.47,27.45,55.8 M71.68,27.23v96.87c0,3.73-3.56,6.42-7.16,5.44 C40.74,123.05,23.24,101,23.24,75.67s17.5-47.39,41.27-53.87C68.12,20.81,71.68,23.5,71.68,27.23z" class="st4"/><g><linearGradient id="SVGID_3_" x1="79.047" x2="79.047" y1="127.394" y2="147.222" gradientUnits="userSpaceOnUse"><stop offset="0" style="stop-color:#af5aad"/><stop offset="1" style="stop-color:#2d0965"/></linearGradient><path style="fill:url(#SVGID_3_)" d="M17.15,131.03c-4.19,0-7.59,3.4-7.59,7.59v0c0,4.19,3.4,7.59,7.59,7.59h123.8 c4.19,0,7.59-3.4,7.59-7.59v0c0-4.19-3.4-7.59-7.59-7.59H17.15z"/></g></g></g></svg>