<svg xmlns="http://www.w3.org/2000/svg" xmlns:xlink="http://www.w3.org/1999/xlink" id="Layer_1" x="0" y="0" version="1.1" viewBox="0 0 841.89 595.28" style="enable-background:new 0 0 841.89 595.28" xml:space="preserve"><style type="text/css">.st0{fill:#202020}.st1{fill:#e90069}.st2{fill:#38c3e8}.st3{fill:#13b5ec}.st4{fill:#fff}.st5{fill:#be1e2d}.st6{fill:#237be5}.st7{fill:#d4d4d4}.st8{fill:#b4b4b4}.st9{fill:#136db7}.st10{fill:#f06a7f}.st11{fill:#fffafc}.st12{fill:#f1f1f1}.st13{fill:#cbcbcb}</style><switch><g><ellipse cx="421.03" cy="387.55" class="st0" rx="149.14" ry="98.5"/><path d="M421.03,474.72c-37.64,0-72.87-9.58-99.21-26.97c-24.89-16.44-38.59-37.81-38.59-60.19 s13.71-43.75,38.59-60.19c26.34-17.39,61.57-26.97,99.21-26.97c37.64,0,72.87,9.58,99.21,26.97 c24.89,16.44,38.59,37.81,38.59,60.19s-13.71,43.75-38.59,60.19C493.91,465.14,458.67,474.72,421.03,474.72z" class="st1"/><g><path d="M457.73,469.16c-0.04-1.3-0.14-2.57-0.32-3.83c-0.42-3.09-1.22-6.06-2.36-8.85 c-2.88-7.08-7.9-13.05-14.26-17.12c-6.66,0.64-13.28,0.99-19.81,1.04v0c-0.03,0-0.06,0-0.09,0c-0.03,0-0.06,0-0.09,0v0 c-6.45-0.05-12.99-0.39-19.56-1.02c-6.35,4.07-11.36,10.04-14.23,17.11c-1.24,3.05-2.08,6.3-2.46,9.7 c-0.11,0.98-0.18,1.98-0.21,2.99c-0.01,0.38-0.03,0.75-0.03,1.13c0,20.28,16.44,36.72,36.72,36.72 c20.28,0,36.72-16.44,36.72-36.72C457.76,469.91,457.74,469.54,457.73,469.16z M446.92,471.48 c-0.62,13.76-11.97,24.72-25.88,24.72c-13.91,0-25.26-10.96-25.88-24.72c-0.02-0.4-0.03-0.79-0.03-1.19 c0-0.52,0.02-1.04,0.05-1.55c0.01-0.11,0.02-0.21,0.03-0.32c0.25-3.45,1.17-6.72,2.64-9.66c4.24-8.52,13.03-14.38,23.2-14.38 c10.16,0,18.95,5.85,23.2,14.37c1.33,2.66,2.21,5.59,2.55,8.67c0.05,0.44,0.09,0.87,0.11,1.32c0.03,0.51,0.05,1.03,0.05,1.55 C446.95,470.69,446.94,471.09,446.92,471.48z" class="st0"/><path d="M430.75,480.82l-9.72,5.51l-9.72-5.51v-7.27c-5.36-0.4-10.76-1.09-16.17-2.06 c0.62,13.76,11.97,24.72,25.88,24.72c13.91,0,25.26-10.96,25.88-24.72c-5.41,0.98-10.81,1.67-16.17,2.07V480.82z" class="st2"/><path d="M416.59,473.85c-1.11-0.04-2.22-0.11-3.33-0.18v6.17l7.77,4.53l7.77-4.53v-6.17 c-1.11,0.07-2.22,0.14-3.33,0.18l-4.45,2.59L416.59,473.85z" class="st2"/><path d="M420.07,473.69v-1.8c-1.07-0.01-2.14-0.03-3.2-0.07L420.07,473.69z" class="st2"/><path d="M413.26,471.91v1.76c1.11,0.07,2.22,0.13,3.33,0.18L413.26,471.91z" class="st2"/><path d="M411.32,471.49c-5.75-0.5-11.19-1.44-16.15-2.75c-0.03,0.51-0.05,1.03-0.05,1.55c0,0.4,0.01,0.8,0.03,1.19 c5.41,0.97,10.81,1.66,16.17,2.06V471.49z" class="st2"/><path d="M428.81,471.91l-3.33,1.94c1.11-0.04,2.22-0.11,3.33-0.18V471.91z" class="st2"/><path d="M422.01,473.69l3.2-1.87c-1.06,0.04-2.13,0.06-3.2,0.07V473.69z" class="st2"/><path d="M430.75,473.55c5.36-0.4,10.76-1.09,16.17-2.07c0.02-0.39,0.03-0.79,0.03-1.19c0-0.52-0.02-1.04-0.05-1.55 c-4.96,1.31-10.4,2.24-16.15,2.75V473.55z" class="st2"/><path d="M421.04,444.38c-10.17,0-18.96,5.86-23.2,14.38c4.51,0.78,9.01,1.37,13.48,1.72v-0.88l9.72-5.51l9.72,5.51 v0.88c4.47-0.36,8.97-0.94,13.48-1.73C439.99,450.23,431.2,444.38,421.04,444.38z" class="st3"/><path d="M420.98,464.11l0.05,0.03v-3.22c1.99-0.02,3.99-0.1,5.99-0.2l0.81-0.46l-6.8-4.05l-6.8,4.05l0.82,0.47 c1.98,0.1,3.96,0.18,5.93,0.2V464.11z" class="st3"/><path d="M414.52,470.12l-0.29,0.17l2.63,1.53c1.06,0.04,2.13,0.06,3.2,0.07v-1.8 C418.2,470.15,416.35,470.15,414.52,470.12z" class="st3"/><path d="M411.32,470.04c-5.57-0.22-10.94-0.77-16.12-1.62c-0.01,0.11-0.02,0.21-0.03,0.32 c4.96,1.31,10.4,2.24,16.15,2.75V470.04z" class="st3"/><polygon points="413.26 461.87 413.26 468.67 419.09 465.27" class="st3"/><path d="M420.98,460.92c-1.97-0.02-3.94-0.09-5.93-0.2l5.93,3.39V460.92z" class="st3"/><path d="M411.32,460.48c-4.47-0.35-8.97-0.94-13.48-1.72c-1.47,2.95-2.39,6.21-2.64,9.66 c5.18,0.86,10.55,1.4,16.12,1.62V460.48z" class="st3"/><path d="M420.07,470.1v-3.21l-5.54,3.23C416.35,470.15,418.2,470.15,420.07,470.1z" class="st3"/><path d="M430.75,471.49c5.75-0.5,11.19-1.44,16.15-2.75c-0.03-0.44-0.06-0.88-0.11-1.32 c-5.12,0.86-10.46,1.55-16.03,2.04V471.49z" class="st3"/><path d="M425.21,471.83l2.63-1.53l-0.9-0.53c-0.39,0.03-0.78,0.06-1.17,0.09c-1.26,0.08-2.51,0.14-3.76,0.19v1.86 C423.08,471.89,424.15,471.87,425.21,471.83z" class="st3"/><path d="M421.03,464.14L421.03,464.14l5.99-3.42c-2.01,0.11-4.01,0.18-5.99,0.2V464.14z" class="st3"/><path d="M426.94,469.77l-4.93-2.88v3.15c1.25-0.05,2.49-0.1,3.76-0.19C426.16,469.83,426.55,469.8,426.94,469.77z" class="st3"/><polygon points="428.81 468.67 428.81 461.87 422.98 465.27" class="st3"/><path d="M430.75,460.48v8.99c5.57-0.49,10.91-1.18,16.03-2.04c-0.34-3.09-1.23-6.01-2.55-8.67 C439.72,459.54,435.22,460.12,430.75,460.48z" class="st3"/><path d="M420.98,473.98c-1.46-0.01-2.92-0.06-4.39-0.12l4.45,2.59l4.45-2.59c-1.49,0.06-2.97,0.11-4.45,0.12v-2.06 c-0.02,0-0.03,0-0.05,0V473.98z" class="st4"/><path d="M428.81,479.85l-7.77,4.53l-7.77-4.53v-6.17c-0.65-0.04-1.29-0.08-1.94-0.12v7.27l9.72,5.51l9.72-5.51v-7.27 c-0.65,0.05-1.3,0.08-1.94,0.12V479.85z" class="st4"/><path d="M413.26,471.91l3.33,1.94c1.47,0.06,2.93,0.11,4.39,0.12v-2.06c-0.31,0-0.61-0.01-0.92-0.01v1.8l-3.2-1.87 c-1.88-0.07-3.73-0.18-5.55-0.34v2.07c0.65,0.05,1.3,0.08,1.94,0.12V471.91z" class="st4"/><path d="M422.01,473.69v-1.8c-0.33,0-0.65,0.01-0.97,0.01c0,0,0,0,0,0v2.06c1.48-0.01,2.96-0.06,4.45-0.12l3.33-1.94 v1.76c0.65-0.04,1.29-0.07,1.94-0.12v-2.07c-1.82,0.16-3.67,0.27-5.55,0.34L422.01,473.69z" class="st4"/><path d="M420.98,471.91c0.02,0,0.03,0,0.05,0v-1.83c-0.02,0-0.03,0-0.05,0V471.91z" class="st4"/><path d="M420.98,470.09c0.02,0,0.03,0,0.05,0v-5.95l-0.05-0.03V470.09z" class="st4"/><path d="M421.04,454.1l-9.72,5.51v0.88c1.25,0.1,2.49,0.17,3.74,0.24l-0.82-0.47l6.8-4.05l6.8,4.05l-0.81,0.46 c1.24-0.07,2.48-0.14,3.73-0.24v-0.88L421.04,454.1z" class="st4"/><path d="M420.07,470.1v1.8c0.31,0,0.61,0.01,0.92,0.01v-1.83C420.67,470.1,420.37,470.09,420.07,470.1z" class="st4"/><path d="M414.23,470.29l0.29-0.17c-1.07-0.02-2.14-0.04-3.21-0.08v1.44c1.82,0.16,3.67,0.27,5.55,0.34L414.23,470.29 z" class="st4"/><path d="M420.07,466.89v3.21c0.31-0.01,0.61-0.01,0.92-0.02v-5.98l-5.93-3.39c-1.24-0.07-2.49-0.14-3.74-0.24v9.56 c1.06,0.04,2.13,0.06,3.21,0.08L420.07,466.89z M413.26,461.87l5.83,3.4l-5.83,3.4V461.87z" class="st4"/><path d="M427.84,470.29l-2.63,1.53c1.88-0.07,3.73-0.18,5.55-0.34v-2.02c-1.26,0.11-2.53,0.21-3.82,0.3 L427.84,470.29z" class="st4"/><path d="M421.04,471.91c0.33,0,0.65-0.01,0.97-0.01v-1.86c-0.32,0.01-0.65,0.03-0.97,0.04L421.04,471.91 C421.04,471.91,421.04,471.91,421.04,471.91z" class="st4"/><path d="M421.04,464.14L421.04,464.14l0,5.95c0.32-0.01,0.65-0.03,0.97-0.04v-3.15l4.93,2.88 c1.28-0.09,2.56-0.19,3.82-0.3v-8.99c-1.25,0.1-2.49,0.17-3.73,0.24L421.04,464.14z M428.81,468.67l-5.83-3.4l5.83-3.4V468.67z" class="st4"/></g><g><g><g><path d="M284.46,87.87c0,0-29.16,62.15-7.2,131.36l107.16-72.93C384.42,146.31,349.81,101.66,284.46,87.87z" class="st0"/><g><path d="M326.27,359.91c-30.46-23.4-67.63-17.18-84.37-12.59c34.06,105.34,179.17,103.8,179.17,103.8V302.59 C349.18,303.4,326.27,359.91,326.27,359.91z" class="st5"/><path d="M326.27,359.91c0,0,22.92-56.51,94.81-57.32V125.5c-79.86-1.47-147.54,72.35-147.54,72.35 c-48.74,58.23-37.4,123.35-37.4,123.35c1.19,9.37,3.15,18.06,5.76,26.13C258.63,342.73,295.81,336.51,326.27,359.91z" class="st5"/></g><path d="M557.62,87.87c0,0,29.16,62.15,7.2,131.36l-107.16-72.93C457.66,146.31,492.26,101.66,557.62,87.87z" class="st0"/><g><path d="M515.81,359.91c30.46-23.4,67.63-17.18,84.37-12.59C566.11,452.66,421,451.11,421,451.11V302.59 C492.89,303.4,515.81,359.91,515.81,359.91z" class="st5"/><path d="M515.81,359.91c0,0-22.92-56.51-94.81-57.32V125.5c79.86-1.47,147.54,72.35,147.54,72.35 c48.74,58.23,37.4,123.35,37.4,123.35c-1.19,9.37-3.15,18.06-5.76,26.13C583.44,342.73,546.27,336.51,515.81,359.91z" class="st5"/></g><g><path d="M326.27,359.91c-30.46-23.4-67.63-17.18-84.37-12.59c34.06,105.34,179.17,103.8,179.17,103.8V302.59 C349.18,303.4,326.27,359.91,326.27,359.91z" class="st0"/><path d="M326.27,359.91c0,0,22.92-56.51,94.81-57.32V125.5c-79.86-1.47-147.54,72.35-147.54,72.35 c-48.74,58.23-37.4,123.35-37.4,123.35c1.19,9.37,3.15,18.06,5.76,26.13C258.63,342.73,295.81,336.51,326.27,359.91z" class="st0"/></g><g><path d="M515.81,359.91c30.46-23.4,67.63-17.18,84.37-12.59C566.11,452.66,421,451.11,421,451.11V302.59 C492.89,303.4,515.81,359.91,515.81,359.91z" class="st0"/><path d="M515.81,359.91c0,0-22.92-56.51-94.81-57.32V125.5c79.86-1.47,147.54,72.35,147.54,72.35 c48.74,58.23,37.4,123.35,37.4,123.35c-1.19,9.37-3.15,18.06-5.76,26.13C583.44,342.73,546.27,336.51,515.81,359.91z" class="st0"/></g><path d="M284.11,200.86c-9.38-43.94,1.38-83.03,7.27-99.67c37.92,10.23,63.57,31.16,75.8,43.13L284.11,200.86z" class="st6"/><path d="M474.93,144.35c12.3-11.98,38.04-32.94,75.75-43.14c5.87,16.68,16.6,55.87,7.29,99.65L474.93,144.35z" class="st6"/><path d="M300.93,188.22c-1.55-23,2.08-43.4,5.75-57.31c18.26,6.68,32.76,15.81,43.28,23.94L300.93,188.22z" class="st0"/><path d="M492.41,155.69c10.54-8.14,25.03-17.27,43.18-23.94c3.66,13.93,7.27,34.33,5.76,57.25L492.41,155.69z" class="st0"/><path d="M420.7,439.78c-5.59,0-137.34-1.09-168.01-95.95c-2.45-7.57-4.23-15.67-5.3-24.07l-0.03-0.26l-0.04-0.26 c-0.1-0.57-9.61-60.72,34.73-113.9c3.46-3.68,65.6-68.53,136.68-68.53c0.7,0,1.41,0.01,2.12,0.02l0.21,0l0.21,0 c0.71-0.01,1.41-0.02,2.12-0.02c71.04,0,133.15,64.79,136.68,68.54c44.63,53.52,34.83,113.3,34.73,113.9l-0.04,0.26l-0.03,0.26 c-1.07,8.39-2.85,16.49-5.3,24.07c-30.67,94.85-162.41,95.95-168.01,95.95C421.37,439.78,420.7,439.78,420.7,439.78z" class="st6"/><path d="M515.79,359.91c0,0-22.9-56.45-94.7-57.31v0c0,0,0,0,0,0c-0.01,0-0.03,0-0.04,0v0 c-71.8,0.87-94.74,57.32-94.74,57.32c-6.85-5.26-14.05-9.02-21.27-11.64c-14.14-5.13-28.38-5.89-40.43-4.93 c-4.13,0.33-8.01,0.86-11.53,1.48c31.27,93.86,162.1,94.96,167.67,94.96c0,0,0.15,0,0.3,0v0c0.15,0,0.31,0,0.31,0 c5.59,0,136.4-1.1,167.67-94.96C569.99,341.44,540.65,340.81,515.79,359.91z" class="st7"/><path d="M339.45,413.05c12.98,4.96,25.95,8.32,37.61,10.59c-38.04-23.51-60.18-49.58-72.08-75.39 c-14.12-5.11-28.34-5.87-40.38-4.91c-0.01,0-0.03,0-0.04,0C275.93,374.96,301.01,398.36,339.45,413.05z" class="st8"/><path d="M311.66,179.2l-10.71,8.65c-0.9-13.3-0.08-25.35,1.5-36.16c-3.08-12.21-4.67-23.01-5.46-29.79 c-4.4,18.01-7.97,44.33-2.46,73.26l1.98,10.4l-6.7,8.19c-16.54,20.24-26.85,43.67-30.63,69.63 c-2.79,19.15-0.85,32.86-0.69,33.97l0.06,0.33l0.08,0.65c1.12,8.84,3.11,17.18,5.93,25.01c0.01,0,0.03,0,0.04,0 c12.04-0.96,26.26-0.2,40.38,4.91c-34.72-75.35,18-148.4,18-148.4C318.79,193.81,314.66,185.92,311.66,179.2z" class="st9"/></g><path d="M477.51,337.16c-0.11-1.72-1.67-2.99-3.39-2.8l-5.76,0.63c-1.59,0.18-2.76,1.54-2.72,3.14 c0.12,4.51-0.36,14.22-9.17,18.4c-10.42,4.93-24.57-3.1-28.47-10.88c-0.65-1.3-0.93-1.86-0.93-4.46v-16.46 c0-1.56,0.93-2.98,2.38-3.59c4.39-1.83,13.9-6.41,20.07-13.94c4.25-5.18,2.39-13.05-3.77-15.69c-4.85-2.08-12.55-3.76-24.7-3.77 v0c-0.01,0-0.01,0-0.02,0s-0.01,0-0.02,0v0c-12.15,0-19.85,1.68-24.7,3.77c-6.16,2.64-8.01,10.51-3.77,15.69 c6.17,7.53,15.68,12.11,20.07,13.94c1.44,0.6,2.38,2.02,2.38,3.59v16.46c0,2.6-0.28,3.16-0.93,4.46 c-3.89,7.78-18.05,15.81-28.47,10.88c-8.82-4.17-9.29-13.89-9.17-18.4c0.04-1.6-1.13-2.96-2.72-3.14l-5.76-0.63 c-1.72-0.19-3.27,1.08-3.39,2.8c-1.5,22.67,12.37,29.09,17.55,30.68c1.09,0.33,1.85,1.28,2.03,2.4 c1.55,9.73,12.64,24.35,36.87,24.36c0,0,0,0,0,0c0.01,0,0.01,0,0.02,0s0.01,0,0.02,0c0,0,0,0,0,0 c24.23-0.01,35.32-14.63,36.87-24.36c0.18-1.12,0.95-2.06,2.03-2.4C465.13,366.25,479.01,359.83,477.51,337.16z" class="st0"/><path d="M400.61,379.47c4.99,4.06,11.95,6.22,20.14,6.27h0.3c13.03-0.01,20.9-5.39,24.57-10.73 c-7.27-3.47-15.65-5.46-24.58-5.46c-8.92,0-17.29,1.98-24.55,5.44C397.5,376.5,398.85,378.04,400.61,379.47z" class="st10"/><path d="M348.2,241.88c-13.07-3.35-29.81-1.35-33.16,11.04c-3.47,12.83,2.76,25.99,16.66,31.25 c21.4,8.09,38.06,1.62,40.51-7.26C376.12,262.78,364.4,246.04,348.2,241.88z M348.32,274.67c-5.32,0-9.64-5.02-9.64-11.21 s4.31-11.21,9.64-11.21s9.64,5.02,9.64,11.21S353.64,274.67,348.32,274.67z" class="st0"/><ellipse cx="348.32" cy="263.46" class="st11" rx="9.64" ry="11.21"/><path d="M568.54,197.84c0,0-3.04-3.31-8.57-8.5c-4.53-4.26-10.74-9.78-18.35-15.8 c-10.43-8.25-23.47-17.43-38.38-25.54c-6.72-3.66-13.83-7.09-21.25-10.13c-2.71,2.34-5.07,4.53-7.07,6.48l11.83,8.05 c2.05,0.97,4.07,1.96,6.05,2.98c19.87,10.17,36.71,22.69,48.58,32.68c2.95,2.48,5.59,4.8,7.9,6.9 c6.17,5.6,9.95,9.55,10.75,10.39c2.29,2.75,4.43,5.52,6.45,8.29c1.34-4.79,2.45-9.54,3.34-14.23 C569.4,198.89,568.98,198.36,568.54,197.84z" class="st0"/><g><g><path d="M421,255.59V148.07C411.83,175.54,404.78,215.85,421,255.59z" class="st0"/><path d="M439.05,137.85c2.82,0.36,5.61,0.82,8.38,1.35C444.66,138.67,441.87,138.22,439.05,137.85z" class="st0"/><path d="M448.14,139.34c2.69,0.53,5.35,1.15,7.98,1.83C453.49,140.49,450.82,139.88,448.14,139.34z" class="st0"/><path d="M438.58,137.79c0.16,0.02,0.31,0.04,0.47,0.06C438.89,137.83,438.74,137.81,438.58,137.79z" class="st0"/><path d="M437.07,137.61c0,0.01-0.01,0.02-0.01,0.02c0.5,0.06,1.01,0.1,1.51,0.16 C438.08,137.73,437.58,137.66,437.07,137.61z" class="st0"/><path d="M447.43,139.21c0.24,0.05,0.47,0.09,0.71,0.14C447.9,139.3,447.67,139.25,447.43,139.21z" class="st0"/><path d="M474.34,310.64c-5.49-7.35-11.76-14.81-18.88-22.39c-10.59-11.28-18.16-23.32-23.29-35.31 c-16.23-38.08-8.55-77.54,0.07-102.71c1.63-4.75,3.29-8.98,4.83-12.61c-3.94-0.45-7.92-0.73-11.94-0.79 c-1.28,3.2-2.5,6.45-3.62,9.73c-0.15,0.43-0.29,0.87-0.44,1.3v107.89c0.23,0.55,0.44,1.1,0.67,1.65 c6.01,14.04,14.57,27.03,25.45,38.61c4.04,4.3,7.83,8.6,11.35,12.88c8.52,2.98,15.92,6.8,22.31,11.02 C478.82,316.84,476.66,313.75,474.34,310.64z" class="st0"/><polygon points="460.92 142.49 460.92 142.49 460.92 142.49" class="st0"/><path d="M456.12,141.17c0.31,0.08,0.63,0.16,0.94,0.25C456.75,141.34,456.44,141.25,456.12,141.17z" class="st0"/><path d="M457.07,141.42c1.29,0.34,2.58,0.7,3.85,1.07C459.64,142.12,458.36,141.76,457.07,141.42z" class="st0"/><path d="M480.87,319.94c-6.39-4.22-13.8-8.05-22.32-11.03c2.36,2.86,4.6,5.7,6.7,8.52 c2.09,2.8,4.16,5.75,6.16,8.76l0.01,0.02c21.42,32.32,26.9,63.09,17.22,96.85l-2.04,7.12c4.26-1.18,8.58-2.51,12.94-4.01 C509.52,391.36,505.22,356.67,480.87,319.94z" class="st0"/></g><g><path d="M595.74,302.43c0-0.06,0-0.13,0-0.19c-0.01-0.71-0.02-1.44-0.04-2.2c0-0.02,0-0.05,0-0.07 c-0.02-0.72-0.04-1.47-0.08-2.22c0-0.07-0.01-0.14-0.01-0.21c-0.07-1.57-0.16-3.22-0.29-4.92c-0.01-0.08-0.01-0.16-0.02-0.23 c-0.13-1.72-0.3-3.49-0.5-5.33c-0.01-0.07-0.02-0.15-0.02-0.22c-0.21-1.85-0.46-3.76-0.75-5.72 c-0.01-0.06-0.02-0.13-0.03-0.19c-0.3-1.98-0.65-4.01-1.05-6.09c-0.01-0.05-0.02-0.1-0.03-0.16c-0.4-2.1-0.86-4.24-1.38-6.42 c-0.01-0.04-0.02-0.07-0.03-0.11c-0.52-2.2-1.11-4.44-1.76-6.72c-0.01-0.02-0.01-0.04-0.02-0.06 c-0.66-2.29-1.38-4.62-2.18-6.98c0-0.01,0-0.01-0.01-0.02c-4.41-13.04-11.08-26.98-21.07-40.73 c-0.97-1.33-1.96-2.66-2.99-3.98c-0.11-0.14-0.22-0.29-0.34-0.43c-0.47-0.61-0.95-1.21-1.44-1.82 c-0.55-0.69-1.11-1.38-1.68-2.06c-0.05-0.06-0.12-0.13-0.2-0.21c-0.04-0.04-0.08-0.09-0.13-0.13 c-0.02-0.03-0.05-0.05-0.07-0.08c-0.02-0.02-0.03-0.03-0.05-0.05c-0.08-0.08-0.16-0.17-0.25-0.26 c-0.01-0.01-0.03-0.03-0.04-0.04c-0.01-0.01-0.02-0.02-0.03-0.04c-0.1-0.1-0.21-0.22-0.33-0.34 c-0.02-0.02-0.04-0.05-0.07-0.07c-0.42-0.43-0.93-0.95-1.53-1.55c-0.02-0.02-0.04-0.04-0.05-0.05 c-0.3-0.3-0.61-0.61-0.96-0.95c0,0-0.01-0.01-0.01-0.01c-1.78-1.75-4.14-4-7.02-6.62c0,0,0,0,0,0c0,0,0,0,0,0 c-0.96-0.88-1.99-1.79-3.07-2.75c-0.83-0.73-1.68-1.48-2.58-2.24c-0.02-0.01-0.03-0.03-0.05-0.04 c-0.04-0.04-0.09-0.08-0.13-0.11c-0.67-0.57-1.35-1.15-2.05-1.74c0,0,0,0-0.01-0.01c0,0,0,0,0,0c0,0,0,0,0,0 c-0.74-0.62-1.5-1.26-2.28-1.9c0,0,0,0-0.01,0c-0.73-0.6-1.47-1.21-2.23-1.82c-0.09-0.08-0.19-0.15-0.28-0.23 c-0.01-0.01-0.01-0.01-0.02-0.02c-1.59-1.28-3.24-2.58-4.96-3.91c-0.02-0.01-0.04-0.03-0.06-0.04 c-0.84-0.65-1.7-1.3-2.57-1.95c-0.07-0.05-0.13-0.1-0.2-0.15c-1.27-0.95-2.57-1.91-3.9-2.87c0,0,0,0-0.01,0 c-9.32-6.74-20.15-13.69-32.06-19.79c0,0,0,0,0,0c0,0,0,0,0,0s0,0,0,0c-1.99-1.02-4.01-2.01-6.05-2.98c0,0,0,0,0,0 l15.78,10.74l-11.38-7.75l-4.4-2.99c-8.2-3.87-16.85-7.27-25.84-9.91h0c-7.73-2.27-15.71-3.96-23.85-4.89 c-1.54,3.64-3.21,7.87-4.84,12.63c-8.61,25.17-16.3,64.62-0.07,102.71c5.14,12,12.7,24.03,23.29,35.31 c7.12,7.58,13.4,15.04,18.88,22.39c2.32,3.11,4.48,6.2,6.52,9.27c0.73,0.48,1.45,0.97,2.15,1.46c0,0,0,0,0,0 c0.16,0.11,0.33,0.23,0.49,0.35c0,0,0,0,0,0c0.56,0.39,1.1,0.79,1.64,1.19c22.17,16.36,30.53,36.68,30.66,36.98 c0.98-0.75,1.97-1.46,2.96-2.15c0.02-0.01,0.04-0.03,0.06-0.04c0,0,0,0,0,0c0.9-0.63,1.81-1.23,2.73-1.81 c-0.97,0.62-1.93,1.26-2.89,1.93c-0.96,0.67-1.91,1.37-2.86,2.09c0,0,0-0.01,0-0.01c0,0-0.01,0.01-0.01,0.01 c0,0-8.31-20.47-30.6-36.95c-0.55-0.4-1.1-0.8-1.66-1.2c-0.16-0.12-0.32-0.23-0.49-0.35c-0.71-0.5-1.43-0.99-2.16-1.47 c0,0,0,0,0,0l0,0c24.35,36.73,28.65,71.42,18.67,106.23c1.14-0.39,2.29-0.82,3.44-1.24c0.85-0.31,1.69-0.59,2.54-0.91 c0.02-0.01,0.04-0.01,0.06-0.02c0.75-0.28,1.51-0.58,2.26-0.87c0.32-0.13,0.65-0.25,0.97-0.38c0.7-0.28,1.4-0.56,2.1-0.85 c0.37-0.15,0.75-0.31,1.12-0.46c0.69-0.29,1.37-0.57,2.05-0.87c0.38-0.16,0.76-0.33,1.14-0.5c0.69-0.3,1.38-0.6,2.07-0.92 c0.33-0.15,0.66-0.3,0.99-0.45c1.69-0.78,3.38-1.58,5.06-2.41c4.77-2.37,9.47-4.98,14.06-7.85c0.01,0,0.02-0.01,0.02-0.01 c1.1-0.69,2.2-1.4,3.28-2.12c0.03-0.02,0.07-0.05,0.1-0.07c1.06-0.7,2.11-1.42,3.16-2.16c0.05-0.04,0.11-0.08,0.16-0.12 c1.02-0.72,2.04-1.46,3.05-2.21c0.07-0.05,0.13-0.1,0.2-0.15c1-0.75,1.98-1.51,2.96-2.28c0.07-0.06,0.14-0.11,0.21-0.17 c0.97-0.77,1.93-1.56,2.88-2.36c0.07-0.06,0.15-0.12,0.22-0.19c0.95-0.8,1.89-1.62,2.81-2.45c0.07-0.06,0.14-0.13,0.21-0.19 c0.93-0.84,1.85-1.69,2.75-2.56c0.07-0.06,0.13-0.12,0.19-0.19c0.91-0.88,1.81-1.77,2.7-2.68c0.06-0.06,0.11-0.11,0.17-0.17 c0.9-0.92,1.78-1.86,2.65-2.82c0.04-0.05,0.09-0.09,0.13-0.14c0.89-0.97,1.76-1.97,2.61-2.98c0.02-0.03,0.05-0.06,0.07-0.09 c0.88-1.03,1.74-2.09,2.58-3.16c0-0.01,0.01-0.01,0.01-0.02c7.71-9.78,14.07-21.15,18.47-34.34 c-0.51-0.09-1.02-0.18-1.54-0.26c0.53,0.09,1.05,0.17,1.56,0.26c0.11-0.33,0.23-0.65,0.34-0.99 c2.45-7.58,4.23-15.67,5.3-24.07l0.03-0.26l0.04-0.26c0-0.02,0.01-0.08,0.03-0.17c0-0.01,0-0.02,0.01-0.04c0,0,0,0,0,0 c0.01-0.04,0.01-0.09,0.02-0.13c0-0.03,0.01-0.06,0.01-0.1c0.01-0.05,0.01-0.1,0.02-0.16c0.01-0.05,0.01-0.09,0.02-0.15 c0.01-0.07,0.02-0.15,0.03-0.23c0-0.03,0.01-0.07,0.01-0.1c0-0.01,0-0.02,0-0.03c0.01-0.1,0.03-0.21,0.04-0.32 c0-0.02,0.01-0.05,0.01-0.07c0-0.02,0-0.03,0.01-0.05c0.01-0.12,0.03-0.25,0.05-0.38c0-0.03,0.01-0.05,0.01-0.08 c0-0.02,0-0.04,0.01-0.06c0.02-0.14,0.03-0.28,0.05-0.43c0-0.01,0-0.03,0-0.04c0-0.04,0.01-0.08,0.01-0.13 c0.02-0.15,0.03-0.31,0.05-0.48c0-0.04,0.01-0.07,0.01-0.11c0-0.02,0-0.05,0.01-0.07c0.02-0.17,0.04-0.36,0.05-0.54 c0.01-0.06,0.01-0.11,0.02-0.17c0.02-0.2,0.04-0.41,0.06-0.62c0-0.01,0-0.01,0-0.02c0-0.05,0.01-0.09,0.01-0.14 c0.02-0.23,0.04-0.46,0.06-0.7c0-0.03,0-0.05,0.01-0.08c0-0.02,0-0.03,0-0.05c0.02-0.26,0.04-0.52,0.06-0.8c0,0,0,0,0,0 c0-0.02,0-0.05,0-0.07c0.02-0.29,0.04-0.59,0.06-0.91c0-0.01,0-0.01,0-0.02c0.03-0.52,0.06-1.06,0.09-1.62c0,0,0,0,0,0 c0.03-0.56,0.05-1.14,0.07-1.74c0-0.03,0-0.06,0-0.09c0.02-0.57,0.03-1.16,0.05-1.77c0-0.04,0-0.08,0-0.12 c0.01-0.64,0.02-1.29,0.02-1.97c0-0.03,0-0.06,0-0.09C595.75,303.76,595.75,303.1,595.74,302.43z M526.97,359.91 c0,0,0-0.01,0-0.01c0,0-0.01,0.01-0.01,0.01c0,0,0-0.03-0.01-0.07c0.01,0.02,0.02,0.06,0.03,0.06 c1.89-1.45,3.81-2.78,5.75-4.01C530.78,357.12,528.86,358.46,526.97,359.91z M527.5,352.46c1.97-1.02,3.95-1.95,5.93-2.78 C531.44,350.52,529.46,351.44,527.5,352.46z M541.2,346.89c1.42-0.43,2.85-0.83,4.27-1.18 C544.05,346.06,542.63,346.45,541.2,346.89z" class="st12"/><path d="M505.45,424.04c-0.82,0.31-1.65,0.59-2.47,0.89c-1.11,0.4-2.23,0.82-3.34,1.2 C501.58,425.47,503.51,424.77,505.45,424.04z" class="st12"/></g></g></g><path d="M530.96,275.6c-1.09,5.3-4.4,6.02-9.2,5.18c-6.07-1.06-14.53-4.63-23.88-4.63 c-7.14,0-13.75,2.08-19.18,3.54c-8.64,2.32-14.29,3.07-14.29-8.65c0-7.02,2.03-13.54,5.51-18.99 c-5.23,6.92-8.39,15.92-8.39,25.77c0,16.19,8.54,11.6,20.78,8.14c4.27-1.21,9-2.28,13.97-2.28c7.74,0,14.9,2.61,20.67,4.28 c8.54,2.47,14.07,2.9,14.07-10.13C531.02,277.07,531,276.33,530.96,275.6z" class="st13"/><path d="M496.64,237.28c-5.27,0-10.26,1.19-14.73,3.31c-3.92,1.86-7.44,4.45-10.38,7.59 c0.26-0.05,0.52-0.1,0.78-0.17c0,0,0,0,0,0c-0.25,0.07-0.51,0.12-0.77,0.17c-1.33,1.42-2.54,2.96-3.62,4.59 c-0.02,0.02-0.04,0.04-0.05,0.07c-3.58,5.45-5.67,11.97-5.67,18.99c0,11.71,5.82,10.97,14.71,8.65 c5.59-1.46,12.39-3.54,19.74-3.54c9.62,0,18.32,3.57,24.57,4.63c4.94,0.84,8.35,0.11,9.47-5.18c0.27-1.25,0.4-2.76,0.4-4.56 C531.08,252.75,515.66,237.28,496.64,237.28z M496.64,272.68c-1.09,0-2.13-0.23-3.09-0.64c-3.51-1.48-6.03-5.38-6.03-9.97 c0-4.48,2.39-8.3,5.76-9.86c1.04-0.48,2.17-0.75,3.36-0.75c5.04,0,9.12,4.75,9.12,10.61S501.68,272.68,496.64,272.68z" class="st0"/><path d="M496.14,251.46c-1.19,0-2.32,0.27-3.36,0.75c-3.37,1.56-5.76,5.38-5.76,9.86c0,4.6,2.52,8.5,6.03,9.97 c0.97,0.41,2.01,0.64,3.09,0.64c5.04,0,9.12-4.75,9.12-10.61S501.18,251.46,496.14,251.46z" class="st11"/><path d="M421,255.59V148.07C411.83,175.54,404.78,215.85,421,255.59z" class="st0"/><path d="M439.05,137.85c2.82,0.36,5.61,0.82,8.38,1.35C444.66,138.67,441.87,138.22,439.05,137.85z" class="st0"/><path d="M448.14,139.34c2.69,0.53,5.35,1.15,7.98,1.83C453.49,140.49,450.82,139.88,448.14,139.34z" class="st0"/><path d="M438.58,137.79c0.16,0.02,0.31,0.04,0.47,0.06C438.89,137.83,438.74,137.81,438.58,137.79z" class="st0"/><path d="M437.07,137.61c0,0.01-0.01,0.02-0.01,0.02c0.5,0.06,1.01,0.1,1.51,0.16 C438.08,137.73,437.58,137.66,437.07,137.61z" class="st0"/><path d="M447.43,139.21c0.24,0.05,0.47,0.09,0.71,0.14C447.9,139.3,447.67,139.25,447.43,139.21z" class="st0"/><path d="M474.34,310.64c-5.49-7.35-11.76-14.81-18.88-22.39c-10.59-11.28-18.16-23.32-23.29-35.31 c-16.23-38.08-8.55-77.54,0.07-102.71c1.63-4.75,3.29-8.98,4.83-12.61c-3.94-0.45-7.92-0.73-11.94-0.79 c-1.28,3.2-2.5,6.45-3.62,9.73c-0.15,0.43-0.29,0.87-0.44,1.3v107.89c0.23,0.55,0.44,1.1,0.67,1.65 c6.01,14.04,14.57,27.03,25.45,38.61c4.04,4.3,7.83,8.6,11.35,12.88c8.52,2.98,15.92,6.8,22.31,11.02 C478.82,316.84,476.66,313.75,474.34,310.64z" class="st0"/><polygon points="460.92 142.49 460.92 142.49 460.92 142.49" class="st0"/><path d="M456.12,141.17c0.31,0.08,0.63,0.16,0.94,0.25C456.75,141.34,456.44,141.25,456.12,141.17z" class="st0"/><path d="M457.07,141.42c1.29,0.34,2.58,0.7,3.85,1.07C459.64,142.12,458.36,141.76,457.07,141.42z" class="st0"/><path d="M480.87,319.94c-6.39-4.22-13.8-8.05-22.32-11.03c2.36,2.86,4.6,5.7,6.7,8.52c2.09,2.8,4.16,5.75,6.16,8.76 l0.01,0.02c21.42,32.32,26.9,63.09,17.22,96.85l-2.04,7.12c4.26-1.18,8.58-2.51,12.94-4.01 C509.52,391.36,505.22,356.67,480.87,319.94z" class="st0"/><path d="M505.45,424.04c-0.82,0.31-1.65,0.59-2.47,0.89c-1.11,0.4-2.23,0.82-3.34,1.2 C501.58,425.47,503.51,424.77,505.45,424.04z" class="st12"/><path d="M576.74,338.63c2.18-6.74,3.77-13.97,4.73-21.51l0.07-0.58l0.06-0.32l0.07-0.43l0.01-0.09l0.03-0.23 l0.03-0.18l0.08-0.72l0.01-0.09l0.19-1.97l0.12-1.58l0.05-0.81c0,0,0.07-1.15,0.08-1.47c0.02-0.5,0.04-1.01,0.06-1.62 c0.02-0.52,0.03-1.05,0.04-1.69c0.01-0.58,0.02-1.17,0.02-1.71v-0.15c0-0.57,0-1.17,0-1.7l0-0.27c-0.01-0.64-0.02-1.29-0.04-1.96 l0-0.06c-0.02-0.66-0.04-1.33-0.07-2l-0.01-0.2c-0.06-1.47-0.15-2.97-0.27-4.47l-0.01-0.21c-0.12-1.6-0.28-3.23-0.46-4.84 l-0.02-0.2c-0.2-1.73-0.43-3.48-0.68-5.19l-0.03-0.18c-0.28-1.85-0.6-3.71-0.95-5.55l0.04,0.2l-0.07-0.33 c-0.38-1.96-0.8-3.92-1.24-5.75c-0.02-0.08-0.04-0.17-0.06-0.25c-0.49-2.04-1.02-4.07-1.58-6.04l-0.04-0.12 c-0.59-2.07-1.24-4.15-1.93-6.18l-0.12-0.33l-0.03-0.1c-4.46-13.08-10.85-25.4-19-36.62c-0.88-1.22-1.8-2.43-2.72-3.62 l-0.31-0.39c-0.73-0.93-1.47-1.86-2.1-2.64c-0.27-0.3-0.54-0.61-0.8-0.91l-0.39-0.4c-0.37-0.38-0.83-0.84-1.36-1.37l-1.58-1.56 c-1.65-1.61-3.4-3.25-5.22-4.92l-0.28-0.18l-0.75-0.75c-0.84-0.76-1.73-1.55-2.66-2.37c-0.23-0.2-0.47-0.41-0.7-0.62l0,0 l-4.34-3.72c-0.36-0.3-1.72-1.43-1.72-1.43c-0.57-0.47-1.14-0.94-1.72-1.41l-0.2-0.12l-0.67-0.58c-1.48-1.19-2.98-2.37-4.48-3.52 l-0.18-0.14c-0.78-0.6-1.57-1.2-2.41-1.83l-0.15-0.11c-0.93-0.7-1.87-1.4-2.83-2.1l-0.12-0.06l-0.86-0.65 c-9.98-7.21-20.1-13.46-30.1-18.57l-0.36-0.19c-1.26-0.64-2.53-1.27-3.8-1.88l0,0l-2.47-1.17c-5.81-2.7-16.44-6.43-21.49-8.15 c-1.34-0.46-2.69,0.66-2.49,2.06c1.96,13.6,14.25,45.35,82.68,73.48c3.49,1.43,6.49,3.84,8.61,6.96 c10.29,15.12,38.67,62.79,24.72,110.93C574.03,346.04,576.74,338.63,576.74,338.63z" class="st13"/><path d="M332.84,223.58c0.51,3.08,1.68,3.94,2.91,4.84c1.81,1.34,4.55,1.5,5.55,1.53c3.43,0.08,12.44-0.87,22.34,6.7 c4.84,3.7,8.31,7.03,13.88,3.96c5.63-3.09,2.67-10.34,2.67-10.34c-2.72-8.67-13.57-18.62-29.56-19.31 c-8.38-0.36-12.21,1.44-14.73,3.77C333.61,216.85,332.33,220.5,332.84,223.58z" class="st0"/></g></g></switch></svg>