<svg xmlns="http://www.w3.org/2000/svg" xmlns:xlink="http://www.w3.org/1999/xlink" width="175.109" height="199.145" viewBox="0 0 175.109 199.145"><defs><linearGradient id="linear-gradient" x1=".512" x2=".488" y1="-.58" y2="1.042" gradientUnits="objectBoundingBox"><stop offset="0" stop-color="#0098a6"/><stop offset="1" stop-color="#002d4d"/></linearGradient><linearGradient id="linear-gradient-2" x1=".5" x2=".5" y1="1.661" y2="-.561" xlink:href="#linear-gradient"/><linearGradient id="linear-gradient-3" x1="-.609" x2=".978" y1="-.84" y2=".906" gradientUnits="objectBoundingBox"><stop offset=".27" stop-color="#0098a6"/><stop offset="1" stop-color="#002d4d"/></linearGradient><linearGradient id="linear-gradient-4" x1=".549" x2=".462" y1="-.317" y2="1.129" xlink:href="#linear-gradient"/><linearGradient id="linear-gradient-5" x1=".5" x2=".5" y1="-.885" y2="1.005" xlink:href="#linear-gradient"/><linearGradient id="linear-gradient-6" x1="2.307" x2="-.502" y1="-.761" y2="1.008" xlink:href="#linear-gradient-3"/><linearGradient id="linear-gradient-7" x1="-1.01" x2="3.462" y1="-1.082" y2="3.605" xlink:href="#linear-gradient-3"/><linearGradient id="linear-gradient-8" x1="-.634" x2="2.805" y1="-.329" y2="2.185" gradientUnits="objectBoundingBox"><stop offset=".088" stop-color="#26ffed"/><stop offset=".39" stop-color="#18c4cd"/><stop offset=".631" stop-color="#0b90b1"/><stop offset=".869" stop-color="#0370a0"/><stop offset=".994" stop-color="#006499"/></linearGradient><linearGradient id="linear-gradient-9" x1="-.807" x2="2.83" y1="-.233" y2="1.883" gradientUnits="objectBoundingBox"><stop offset=".098" stop-color="#26ffed"/><stop offset=".381" stop-color="#18c4cd"/><stop offset=".631" stop-color="#0b90b1"/><stop offset=".869" stop-color="#0370a0"/><stop offset=".993" stop-color="#006499"/></linearGradient><linearGradient id="linear-gradient-10" x1="1.242" x2="-1.078" y1="-.484" y2="3.245" gradientUnits="objectBoundingBox"><stop offset="0" stop-color="#26ffed"/><stop offset=".315" stop-color="#18c4cd"/><stop offset=".631" stop-color="#0b90b1"/><stop offset=".869" stop-color="#0370a0"/><stop offset="1" stop-color="#006499"/></linearGradient><linearGradient id="linear-gradient-11" x1="-.958" x2="6.711" y1="2.116" y2="-6.387" xlink:href="#linear-gradient-10"/><linearGradient id="linear-gradient-12" x1=".513" x2=".495" y1="-.603" y2=".936" xlink:href="#linear-gradient"/><linearGradient id="linear-gradient-13" x1="-1.942" x2="2.122" y1="1.23" y2=".015" xlink:href="#linear-gradient-10"/></defs><g id="MARK" transform="translate(-180.891 -231.93)"><path id="Path_75" fill="url(#linear-gradient)" d="M315.675,325.686c17.963-10,34.047-19.21,34.047-19.21L268.478,261.45v88.889c2.8-.878,10.062-4.513,19.16-9.34l28.037,16.187Z" data-name="Path 75"/><path id="Path_76" fill="url(#linear-gradient-2)" d="M268.478,261.45l-81.243,41.688S258.18,343.766,268.478,347Z" data-name="Path 76"/><path id="Path_77" fill="url(#linear-gradient-3)" d="M315.675,357.186,268.34,329.857l-61.974,35.92,62.112,35.944,62.167-35.892V348.544Z" data-name="Path 77"/><path id="Path_78" fill="url(#linear-gradient-4)" d="M243.006,301.992v64.451l25.565,14.76V316.752Z" data-name="Path 78"/><path id="Path_79" fill="url(#linear-gradient-5)" d="M268.571,316.752V381.2l25.565-14.76V301.992Z" data-name="Path 79"/><path id="Path_80" fill="url(#linear-gradient-6)" d="M229.815,331.936l-23.359,13.486v20.406l38.313-22.12Z" data-name="Path 80"/><path id="Path_81" fill="url(#linear-gradient-7)" d="M231.131,331.176l-24.675,14.246L181.6,331.073l24.675-14.246Z" data-name="Path 81"/><g id="Group_17" data-name="Group 17"><path id="Path_82" fill="url(#linear-gradient-8)" d="M180.891,282.5V311.8l87.587,50.568V333.066Z" data-name="Path 82"/><path id="Path_83" fill="url(#linear-gradient-9)" d="M206.456,345.423l-25.565-14.76v49.8l87.587,50.568V401.721l-62.022-35.808Z" data-name="Path 83"/></g><g id="Group_18" data-name="Group 18"><path id="Path_84" fill="url(#linear-gradient-10)" d="M268.478,231.93,180.891,282.5l25.565,14.76,62.022-35.808,47.177,27.237,25.565-14.76Z" data-name="Path 84"/><path id="Path_85" fill="url(#linear-gradient-11)" d="M243.006,301.992l25.565,14.76,25.38-14.653-25.565-14.76Z" data-name="Path 85"/></g><path id="Path_86" fill="url(#linear-gradient-12)" d="M315.655,288.687V357.2l25.565-14.76V273.927Z" data-name="Path 86"/><path id="Path_87" fill="url(#linear-gradient-13)" d="M268.414,333.114V362.42l62.022-35.808V365.96l-62.022,35.808v29.306L356,380.506V282.546Z" data-name="Path 87"/></g></svg>