<svg xmlns="http://www.w3.org/2000/svg" xmlns:xlink="http://www.w3.org/1999/xlink" width="75" height="94" version="1.1" viewBox="0 0 75 94"><title>logo</title><g id="Page-1" fill="none" fill-rule="evenodd" stroke="none" stroke-width="1"><g id="Home-Ten-" fill="#EB4F45" transform="translate(-393.000000, -62.000000)"><g id="logo" transform="translate(393.000000, 62.000000)"><polygon id="Path" fill-rule="nonzero" points="22 74 22 76.084 12.223 76.084 12.223 94 9.777 94 9.777 76.084 0 76.084 0 74"/><polygon id="Path" fill-rule="nonzero" points="27 93.994 27 74 47 74 47 76.084 29.498 76.084 29.498 82.753 46.14 82.753 46.14 84.837 29.498 84.837 29.498 91.916 46.984 91.916 46.984 94"/><polygon id="Path" fill-rule="nonzero" points="52.477 94 50 94 50 74 54.365 74 72.523 91.5 72.523 74 75 74 75 94 71.674 94 52.477 76.084"/><g id="Group-5" transform="translate(6.000000, 0.000000)"><polygon id="Fill-1" points="31 0 0 18 0 54 24.8 39.6 18.6 36 6.2 43.2 6.2 21.6 24.8 10.8 24.8 25.2 31 28.8"/><polygon id="Fill-2" points="34 0 34 28.8 40.2 25.2 40.2 10.8 58.8 21.6 58.8 43.2 46.4 36 40.2 39.6 65 54 65 18"/><polygon id="Fill-3" points="51.167 22.78 34 32.658 34 52.415 34 59 51.167 49.122 45.445 45.829 39.722 49.122 39.722 35.951 40.365 35.582 41.334 35.024 51.167 29.366 51.167 35.951 56 38.732 56 20"/><polygon id="Fill-4" points="9 38.732 13.833 35.951 13.833 29.366 23.666 35.024 24.635 35.581 25.277 35.951 25.277 49.122 19.555 45.829 13.833 49.122 31 59 31 52.415 31 32.658 13.833 22.78 9 20"/></g></g></g></g></svg>