<svg xmlns="http://www.w3.org/2000/svg" xmlns:svg="http://www.w3.org/2000/svg" id="svg308" width="402.414" height="402.414" version="1.1" viewBox="0 0 106.472 106.472"><g id="layer1" transform="translate(-38.869668,-16.031472)"><path d="m 38.869668,69.26747 c 0,-29.401239 23.834461,-53.235998 53.236002,-53.235998 29.40124,0 53.236,23.834759 53.236,53.235998 0,29.401539 -23.83476,53.236 -53.236,53.236 -29.401541,0 -53.236002,-23.834461 -53.236002,-53.236" style="fill:#00dbf9;fill-opacity:.968627;fill-rule:nonzero;stroke:none;stroke-width:.301413" id="path59"/><path d="m 65.077735,53.397798 c 0.003,9.513711 8.35519,14.814902 20.649847,13.219289 7.229827,-0.938036 14.507278,-1.658761 21.746628,-2.555875 7.87259,-0.976136 13.5636,-5.37845 13.79467,-10.544881 0.22472,-5.033433 -4.53743,-9.320388 -12.0777,-10.871552 -0.58949,-0.121356 -1.17228,-0.279047 -1.77271,-0.350661 -7.703957,-0.918281 -15.398391,-1.8923 -23.120344,-2.716742 -11.423301,-1.2192 -19.223561,4.435122 -19.220391,13.820422" style="fill:#fff;fill-opacity:1;fill-rule:nonzero;stroke:none;stroke-width:.352778" id="path71"/><g id="g73" transform="matrix(-0.35277777,0,0,0.35277777,112.01612,77.80561)"><path d="m 0,0 c -0.094,-18.166 14.95,-28.25 38.441,-25.671 13.729,1.506 27.45,3.073 41.142,4.763 15.529,1.917 26.334,9.829 27.121,19.624 0.763,9.51 -9.346,18.525 -24.926,20.875 C 66.071,21.96 50.202,24.211 34.271,25.072 12.238,26.262 0.086,16.769 0,0" style="fill:#fff;fill-opacity:1;fill-rule:nonzero;stroke:none" id="path75"/></g><g id="g77" transform="matrix(-0.35277777,0,0,0.35277777,77.539855,95.38128)"><path d="m 0,0 c 0.067,-13.057 -10.746,-20.305 -27.631,-18.452 -9.868,1.083 -19.73,2.209 -29.572,3.424 -11.162,1.378 -18.928,7.065 -19.493,14.106 -0.55,6.835 6.717,13.315 17.915,15.004 11.29,1.703 22.697,3.321 34.148,3.939 C -8.796,18.877 -0.062,12.054 0,0" style="fill:#fff;fill-opacity:1;fill-rule:nonzero;stroke:none" id="path79"/></g></g></svg>